inDegrees=yes
name=ouput_greeting.mot
DataType=double
version=3
OpenSimVersion=4.5
endheader
time	pelvis_tilt	pelvis_list	pelvis_rotation	pelvis_tx	pelvis_ty	pelvis_tz	hip_flexion_r	hip_adduction_r	hip_rotation_r	knee_angle_r	knee_angle_r_beta	ankle_angle_r	subtalar_angle_r	mtp_angle_r	hip_flexion_l	hip_adduction_l	hip_rotation_l	knee_angle_l	knee_angle_l_beta	ankle_angle_l	subtalar_angle_l	mtp_angle_l	lumbar_extension	lumbar_bending	lumbar_rotation	arm_flex_r	arm_add_r	arm_rot_r	elbow_flex_r	pro_sup_r	wrist_flex_r	wrist_dev_r	arm_flex_l	arm_add_l	arm_rot_l	elbow_flex_l	pro_sup_l	wrist_flex_l	wrist_dev_l
2.134615384615381	-5.091814310635018	-21.19064927401855	-165.5957014152139	0	0.93	0	-10.27156983027852	-19.64969352630602	-3.08169396955212	0.6687861479081545	0.01167252027272708	-4.957990390385359	1.004839143028799e-15	5.994413194554314e-23	-9.255381375028637	20.19111721637753	-0.9253539843179507	2.199229849251162	0.03838380187757132	-4.957990390499099	-5.219028200989603e-20	8.597742162669499e-23	1.691695095364537e-25	3.578200890764747e-23	1.097349311344428e-25	1.751125660432838e-14	1.657547248153888e-17	-1.999978004702509e-14	6.876635193196748e-14	7.607313128071005e-14	-2.345273292951279e-23	-2.130125927412108e-24	-4.450612597824681e-14	1.249043444823722e-14	5.439302952438513e-15	9.837691487810068e-14	0	-6.803955690404942e-23	3.958536609519503e-23
2.153846153846151	-0.2947377347179244	-23.13049099398154	-165.3618479587418	0	0.93	0	-6.33704003644935	-22.60629814216293	-3.548901941144231	0.5760586434800128	0.01005412001329839	-4.95825218647546	0	0	-6.112344830276849	23.15055619467168	1.274109415479235	0.7662535548991429	0.01337364743810117	-4.958252186504386	0	0	0	0	0	0	0	0	0	0	0	0	0	0	0	0	0	0	0
2.17307692307692	1.931451615814244	-22.79251733962142	-166.4473774005883	0	0.93	0	-3.57869843298269	-22.75660153203504	-0.9064490485305839	0.6266879473975515	0.0109377680646523	-4.958854922344131	2.051209616829329e-18	-1.932289474987067e-22	-1.090284967359661	23.25398243522131	-6.279594496204522	3.307484978250195	0.05772650283071894	-4.958854922372569	7.211788080940138e-22	6.467692237447847e-23	-6.232006793916679e-26	-2.682065853453197e-22	7.449443390071256e-26	-1.583691894983208e-15	1.354125684077089e-18	-4.951957735435702e-14	0	3.754296755005147e-15	-1.248777567514299e-23	2.494228532752383e-23	-1.179889778870974e-14	2.710251076484373e-14	-1.90338327776392e-15	0	0	-6.142372230066385e-23	-1.058741796613553e-22
2.192307692307689	3.512073954151499	-22.51129900569733	-166.3034673928034	0	0.93	0	-1.940470190966129	-22.91330517955534	-0.2955039497951931	0.5591054312730089	0.009758230641496878	-4.959134069570085	0	0	-0.1591094855776307	23.4181151337052	-4.672814400059305	2.222993572968087	0.03879855709896593	-4.959134069598336	0	0	0	0	0	0	0	0	0	0	0	0	0	0	0	1.532928771146965e-38	3.514587783872298e-40	0	0
2.211538461538458	6.538217283551417	-20.90383614048499	-165.2163400815485	0	0.93	0	1.27153837965519	-22.25595557614755	-0.3558328178368955	0.7829406606853407	0.01366489237669892	-4.959635961527532	0	0	5.157510732126292	22.35455624870695	-8.853699979743075	4.786357216097181	0.08353769259748554	-4.959635961663881	0	0	0	0	0	0	0	0	0	0	0	0	0	0	0	0	0	0	0
2.230769230769227	8.652864005035411	-18.62979256707986	-164.8554238189081	0	0.93	0	4.102178806667035	-20.86831046194112	-0.5461659625883323	0.8636062172028588	0.01507277193088318	-4.959853163550544	0	0	7.796333511490273	20.76487404122916	-7.570858632234758	4.657375088519615	0.08128652979502964	-4.959853163684914	0	0	0	0	0	0	0	0	4.190320317279289e-39	0	0	0	0	0	0	0	0	0	0
2.249999999999996	7.851221057031267	-18.23924172270121	-165.5809788058025	0	0.93	0	3.676533734489705	-20.4929895171087	0.3317158379737317	0.7142453356958566	0.01246593277490488	-4.960254258893353	0	0	5.329652772691014	20.27420472202333	-3.497657305319577	2.023445427064389	0.03531578493669638	-4.960254259026387	0	0	0	0	0	0	0	0	0	0	0	0	0	0	0	0	0	0	0
2.269230769230766	7.073787956792708	-19.50992056936782	-164.9455357179535	1.31633564931374e-40	0.93	4.688690612529994e-29	2.472421115969258	-21.71976690246954	0.7101889552379783	0.6510318814033172	0.01136264986594113	-4.960579907786841	-1.106262494014465e-14	2.67891390056621e-21	5.569956834225638	21.1881522483866	-6.840544322595594	4.34002145253107	0.07574766395385395	-4.960579907916564	1.661558641913332e-19	-1.945793684474857e-21	-2.815177586376967e-26	-3.352456500265793e-22	6.134005806543984e-26	2.080558594520693e-14	5.670708287620222e-18	3.967913221304712e-14	0	1.66273669773493e-14	-4.95833979107847e-25	6.120880404425881e-24	1.177354331432022e-14	-2.127187423372008e-14	-2.797904917167837e-14	1.941885346613942e-14	0	3.093173305929061e-23	-1.205749590131029e-23
2.288461538461535	6.430501996369919	-17.16763766574209	-164.9160096319098	9.216788554858871e-46	0.93	3.282953348017732e-34	2.145632438713556	-19.33799208875969	0.009227498498842367	0.4818381112756341	0.008409661503350629	-4.960949173328909	-2.785116857809564e-18	-2.726794190580113e-22	5.017194150254011	18.88799513326373	-5.208680067619203	3.845893304876168	0.06712350085049522	-4.960949173446936	1.08883857587317e-18	5.361732123824271e-22	-7.47842371516808e-26	-2.323405038311565e-22	-4.743031290182846e-26	-1.778078235742799e-14	9.494254152468857e-21	1.923464767595018e-13	7.622331937916012e-14	3.318864965682229e-14	1.824008570896312e-22	2.435763497747928e-22	3.162047093518403e-13	5.451042809777592e-13	-1.3341256811083e-14	9.942939394290979e-14	3.95593006019205e-15	5.364258262427771e-22	-3.122282002821427e-22
2.307692307692304	5.10753980950156	-14.32172079422362	-164.3831400865368	0	0.93	0	1.175883579669137	-16.27751286867996	-1.926565099064742	0.5766602181530743	0.01006461947203992	-4.961602760244352	0	0	3.615464209159043	16.02012694101045	-2.417377868266315	3.214211533013365	0.05609857410665763	-4.961602760360272	0	0	0	0	0	0	0	0	0	0	0	0	0	0	0	0	0	0	0
2.326923076923073	4.583925927051549	-13.10702973117133	-164.0838220187374	0	0.93	0	1.191922082146985	-14.92560606707078	-1.17559022468359	0.6048287352871251	0.01055625284143354	-4.961909302899897	-1.987395084333138e-16	-2.295156852905279e-16	3.47445419192738	14.61313841860751	-2.835035666692139	3.541372801790772	0.0618086154318255	-4.961909303012447	2.44305901851983e-16	-2.915388798548792e-17	6.107461369346527e-26	-1.013630932536305e-16	-2.326439458940472e-26	6.498604058792319e-15	1.568655444489918e-17	1.679102647992289e-14	1.177766528924645e-15	0	5.796322863200346e-17	-1.079674289479605e-16	1.071062609257272e-13	2.716518231145233e-14	1.280076215046708e-13	5.475616779798905e-15	8.890395787815318e-15	1.266483502720658e-17	1.154379608673561e-16
2.346153846153842	4.067954353011146	-13.04643464529205	-164.0212274714204	0	0.93	0	0.6101322676875377	-14.64390205431419	-2.056089627960255	0.6266389334951187	0.0109369126106756	-4.962356405489086	0	0	1.023933284581378	14.30101551899839	0.8235371554468306	1.663863829801849	0.02903990213488482	-4.962356405602666	0	0	0	0	0	0	0	0	0	0	0	0	0	0	0	0	0	0	0
2.365384615384611	3.731212391731813	-12.63704054714266	-163.9299780580145	-7.279189653283415e-35	0.93	-5.580287455937869e-25	0.4752589571364495	-13.9684685615246	-0.504402547974535	0.4577178511112185	0.007988683547043948	-4.962620697995173	-2.685261644206017e-13	-5.834014290718722e-14	0.4366620121375959	13.80934190356458	-1.200957372546021	1.662796138702426	0.02902126740980564	-4.962620698113785	4.293240266072128e-13	5.74903800818098e-14	1.15429077112564e-18	1.668295875985185e-13	7.92083210841426e-14	5.660581700554924e-13	3.027858260690387e-14	-5.10550962242853e-13	2.97544210810342e-14	2.621764755487492e-14	-2.711253216668571e-18	2.190649555296798e-16	1.243687568245827e-15	-3.300646893382013e-14	-1.05490388225182e-13	4.462965563722257e-14	0	-5.484304477219891e-18	-2.784655988630758e-16
2.384615384615381	3.296730008328593	-12.9388815490951	-162.644614430325	1.455837878090156e-34	0.93	2.21197233308631e-25	-0.2977717197934707	-13.85544312627928	-3.145898123552514	0.645925016741149	0.01127351826313254	-4.963207288714323	-4.422425875713813e-15	-8.268073563743015e-14	-0.793624107094855	13.90596234619211	1.803769584753895	1.320174778649858	0.02304139658922736	-4.963207288832648	1.898061271762343e-14	7.553585602116663e-15	2.266278227183268e-21	-1.448881707889238e-15	-5.149131134808397e-14	1.477731937686898e-13	-1.037774933625877e-14	-3.140412135151838e-14	5.658274623232662e-15	7.541476340429241e-15	8.37946597534382e-17	-2.989656576201136e-15	4.417554462563325e-15	5.008925285422832e-14	-6.794302251706067e-14	4.552803709219189e-15	6.20848499077621e-15	-5.188705590149529e-17	1.87769900643399e-16
